<mxfile host="Electron" agent="Mozilla/5.0 (Windows NT 10.0; Win64; x64) AppleWebKit/537.36 (KHTML, like Gecko) draw.io/24.7.17 Chrome/128.0.6613.36 Electron/32.0.1 Safari/537.36" version="24.7.17">
  <diagram name="Page-1" id="fhMQ8-u420c7H1t1cwoQ">
    <mxGraphModel dx="988" dy="586" grid="1" gridSize="10" guides="1" tooltips="1" connect="1" arrows="1" fold="1" page="1" pageScale="1" pageWidth="850" pageHeight="1100" math="0" shadow="0">
      <root>
        <mxCell id="0" />
        <mxCell id="1" parent="0" />
        <mxCell id="wW6kRPYwU79xlvJDrJ0U-15" style="edgeStyle=orthogonalEdgeStyle;rounded=0;orthogonalLoop=1;jettySize=auto;html=1;exitX=1;exitY=0.3333333333333333;exitDx=0;exitDy=0;exitPerimeter=0;entryX=0;entryY=0.5;entryDx=0;entryDy=0;" parent="1" source="wW6kRPYwU79xlvJDrJ0U-1" target="wW6kRPYwU79xlvJDrJ0U-6" edge="1">
          <mxGeometry relative="1" as="geometry" />
        </mxCell>
        <mxCell id="wW6kRPYwU79xlvJDrJ0U-1" value="Administrator" style="shape=umlActor;verticalLabelPosition=bottom;verticalAlign=top;html=1;outlineConnect=0;" parent="1" vertex="1">
          <mxGeometry x="110" y="250" width="30" height="60" as="geometry" />
        </mxCell>
        <mxCell id="wW6kRPYwU79xlvJDrJ0U-26" style="edgeStyle=orthogonalEdgeStyle;rounded=0;orthogonalLoop=1;jettySize=auto;html=1;exitX=1;exitY=0.3333333333333333;exitDx=0;exitDy=0;exitPerimeter=0;entryX=0;entryY=0.5;entryDx=0;entryDy=0;" parent="1" source="wW6kRPYwU79xlvJDrJ0U-2" target="wW6kRPYwU79xlvJDrJ0U-12" edge="1">
          <mxGeometry relative="1" as="geometry" />
        </mxCell>
        <mxCell id="wW6kRPYwU79xlvJDrJ0U-27" style="edgeStyle=orthogonalEdgeStyle;rounded=0;orthogonalLoop=1;jettySize=auto;html=1;exitX=1;exitY=0.3333333333333333;exitDx=0;exitDy=0;exitPerimeter=0;entryX=0;entryY=0.5;entryDx=0;entryDy=0;" parent="1" source="wW6kRPYwU79xlvJDrJ0U-2" target="wW6kRPYwU79xlvJDrJ0U-13" edge="1">
          <mxGeometry relative="1" as="geometry" />
        </mxCell>
        <mxCell id="wW6kRPYwU79xlvJDrJ0U-28" style="edgeStyle=orthogonalEdgeStyle;rounded=0;orthogonalLoop=1;jettySize=auto;html=1;entryX=0;entryY=0.5;entryDx=0;entryDy=0;" parent="1" target="wW6kRPYwU79xlvJDrJ0U-14" edge="1">
          <mxGeometry relative="1" as="geometry">
            <mxPoint x="140" y="620" as="sourcePoint" />
          </mxGeometry>
        </mxCell>
        <mxCell id="wW6kRPYwU79xlvJDrJ0U-2" value="Cyber Analyst" style="shape=umlActor;verticalLabelPosition=bottom;verticalAlign=top;html=1;outlineConnect=0;" parent="1" vertex="1">
          <mxGeometry x="110" y="600" width="30" height="60" as="geometry" />
        </mxCell>
        <mxCell id="wW6kRPYwU79xlvJDrJ0U-4" value="Extends" style="endArrow=block;endSize=16;endFill=0;html=1;rounded=0;entryX=0.5;entryY=0;entryDx=0;entryDy=0;entryPerimeter=0;" parent="1" source="wW6kRPYwU79xlvJDrJ0U-1" target="wW6kRPYwU79xlvJDrJ0U-2" edge="1">
          <mxGeometry width="160" relative="1" as="geometry">
            <mxPoint x="340" y="320" as="sourcePoint" />
            <mxPoint x="500" y="320" as="targetPoint" />
          </mxGeometry>
        </mxCell>
        <mxCell id="wW6kRPYwU79xlvJDrJ0U-6" value="Maintain" style="ellipse;whiteSpace=wrap;html=1;" parent="1" vertex="1">
          <mxGeometry x="230" y="245" width="104" height="50" as="geometry" />
        </mxCell>
        <mxCell id="wW6kRPYwU79xlvJDrJ0U-8" value="Install" style="ellipse;whiteSpace=wrap;html=1;" parent="1" vertex="1">
          <mxGeometry x="400" y="175" width="100" height="50" as="geometry" />
        </mxCell>
        <mxCell id="wW6kRPYwU79xlvJDrJ0U-9" value="Update" style="ellipse;whiteSpace=wrap;html=1;" parent="1" vertex="1">
          <mxGeometry x="400" y="315" width="110" height="50" as="geometry" />
        </mxCell>
        <mxCell id="wW6kRPYwU79xlvJDrJ0U-10" value="New Version" style="ellipse;whiteSpace=wrap;html=1;" parent="1" vertex="1">
          <mxGeometry x="550" y="255" width="100" height="50" as="geometry" />
        </mxCell>
        <mxCell id="wW6kRPYwU79xlvJDrJ0U-11" value="Update Rule Engine" style="ellipse;whiteSpace=wrap;html=1;" parent="1" vertex="1">
          <mxGeometry x="550" y="365" width="100" height="50" as="geometry" />
        </mxCell>
        <mxCell id="wW6kRPYwU79xlvJDrJ0U-12" value="Configure ACI" style="ellipse;whiteSpace=wrap;html=1;" parent="1" vertex="1">
          <mxGeometry x="240" y="580" width="104" height="50" as="geometry" />
        </mxCell>
        <mxCell id="wW6kRPYwU79xlvJDrJ0U-13" value="Investigate Threats" style="ellipse;whiteSpace=wrap;html=1;" parent="1" vertex="1">
          <mxGeometry x="240" y="771" width="104" height="50" as="geometry" />
        </mxCell>
        <mxCell id="wW6kRPYwU79xlvJDrJ0U-14" value="Review Threats" style="ellipse;whiteSpace=wrap;html=1;" parent="1" vertex="1">
          <mxGeometry x="240" y="931" width="104" height="50" as="geometry" />
        </mxCell>
        <mxCell id="wW6kRPYwU79xlvJDrJ0U-16" value="&amp;lt;&amp;lt;includes&amp;gt;&amp;gt;" style="endArrow=open;endSize=12;dashed=1;html=1;rounded=0;exitX=1;exitY=0.5;exitDx=0;exitDy=0;entryX=0;entryY=0.5;entryDx=0;entryDy=0;" parent="1" source="wW6kRPYwU79xlvJDrJ0U-6" target="wW6kRPYwU79xlvJDrJ0U-8" edge="1">
          <mxGeometry width="160" relative="1" as="geometry">
            <mxPoint x="460" y="365" as="sourcePoint" />
            <mxPoint x="620" y="365" as="targetPoint" />
          </mxGeometry>
        </mxCell>
        <mxCell id="wW6kRPYwU79xlvJDrJ0U-18" value="&amp;lt;&amp;lt;includes&amp;gt;&amp;gt;" style="endArrow=open;endSize=12;dashed=1;html=1;rounded=0;exitX=1;exitY=0.5;exitDx=0;exitDy=0;entryX=0;entryY=0.5;entryDx=0;entryDy=0;" parent="1" source="wW6kRPYwU79xlvJDrJ0U-6" target="wW6kRPYwU79xlvJDrJ0U-9" edge="1">
          <mxGeometry width="160" relative="1" as="geometry">
            <mxPoint x="344" y="280" as="sourcePoint" />
            <mxPoint x="410" y="210" as="targetPoint" />
          </mxGeometry>
        </mxCell>
        <mxCell id="wW6kRPYwU79xlvJDrJ0U-19" value="&amp;lt;&amp;lt;extends&amp;gt;&amp;gt;" style="endArrow=open;endSize=12;dashed=1;html=1;rounded=0;exitX=0;exitY=0.5;exitDx=0;exitDy=0;entryX=1;entryY=0;entryDx=0;entryDy=0;" parent="1" source="wW6kRPYwU79xlvJDrJ0U-10" target="wW6kRPYwU79xlvJDrJ0U-9" edge="1">
          <mxGeometry width="160" relative="1" as="geometry">
            <mxPoint x="354" y="290" as="sourcePoint" />
            <mxPoint x="420" y="220" as="targetPoint" />
          </mxGeometry>
        </mxCell>
        <mxCell id="wW6kRPYwU79xlvJDrJ0U-20" value="&amp;lt;&amp;lt;extends&amp;gt;&amp;gt;" style="endArrow=open;endSize=12;dashed=1;html=1;rounded=0;exitX=0;exitY=0.5;exitDx=0;exitDy=0;entryX=0.92;entryY=0.832;entryDx=0;entryDy=0;entryPerimeter=0;" parent="1" source="wW6kRPYwU79xlvJDrJ0U-11" target="wW6kRPYwU79xlvJDrJ0U-9" edge="1">
          <mxGeometry width="160" relative="1" as="geometry">
            <mxPoint x="560" y="290" as="sourcePoint" />
            <mxPoint x="504" y="332" as="targetPoint" />
          </mxGeometry>
        </mxCell>
        <mxCell id="wW6kRPYwU79xlvJDrJ0U-21" value="Add/Remove alerts from investigation" style="ellipse;whiteSpace=wrap;html=1;" parent="1" vertex="1">
          <mxGeometry x="441" y="580" width="110" height="50" as="geometry" />
        </mxCell>
        <mxCell id="wW6kRPYwU79xlvJDrJ0U-22" value="View infected machines" style="ellipse;whiteSpace=wrap;html=1;" parent="1" vertex="1">
          <mxGeometry x="441" y="891" width="104" height="50" as="geometry" />
        </mxCell>
        <mxCell id="wW6kRPYwU79xlvJDrJ0U-23" value="View malicious HTTP requests" style="ellipse;whiteSpace=wrap;html=1;" parent="1" vertex="1">
          <mxGeometry x="441" y="971" width="104" height="50" as="geometry" />
        </mxCell>
        <mxCell id="wW6kRPYwU79xlvJDrJ0U-24" value="View IP meta history" style="ellipse;whiteSpace=wrap;html=1;" parent="1" vertex="1">
          <mxGeometry x="441" y="801" width="104" height="50" as="geometry" />
        </mxCell>
        <mxCell id="wW6kRPYwU79xlvJDrJ0U-25" value="Add/delete sensors from ACI investigation" style="ellipse;whiteSpace=wrap;html=1;" parent="1" vertex="1">
          <mxGeometry x="441" y="650" width="110" height="50" as="geometry" />
        </mxCell>
        <mxCell id="wW6kRPYwU79xlvJDrJ0U-29" value="Notified about threat by Investigation" style="ellipse;whiteSpace=wrap;html=1;" parent="1" vertex="1">
          <mxGeometry x="441" y="731" width="104" height="50" as="geometry" />
        </mxCell>
        <mxCell id="wW6kRPYwU79xlvJDrJ0U-30" value="&amp;lt;&amp;lt;extends&amp;gt;&amp;gt;" style="endArrow=open;endSize=12;dashed=1;html=1;rounded=0;exitX=0;exitY=0.5;exitDx=0;exitDy=0;entryX=1;entryY=0.5;entryDx=0;entryDy=0;" parent="1" source="wW6kRPYwU79xlvJDrJ0U-21" target="wW6kRPYwU79xlvJDrJ0U-12" edge="1">
          <mxGeometry width="160" relative="1" as="geometry">
            <mxPoint x="560" y="295" as="sourcePoint" />
            <mxPoint x="504" y="337" as="targetPoint" />
          </mxGeometry>
        </mxCell>
        <mxCell id="wW6kRPYwU79xlvJDrJ0U-31" value="&amp;lt;&amp;lt;extends&amp;gt;&amp;gt;" style="endArrow=open;endSize=12;dashed=1;html=1;rounded=0;exitX=0;exitY=0.5;exitDx=0;exitDy=0;entryX=1;entryY=1;entryDx=0;entryDy=0;" parent="1" source="wW6kRPYwU79xlvJDrJ0U-25" target="wW6kRPYwU79xlvJDrJ0U-12" edge="1">
          <mxGeometry width="160" relative="1" as="geometry">
            <mxPoint x="430" y="565" as="sourcePoint" />
            <mxPoint x="354" y="615" as="targetPoint" />
          </mxGeometry>
        </mxCell>
        <mxCell id="wW6kRPYwU79xlvJDrJ0U-32" value="&amp;lt;&amp;lt;extends&amp;gt;&amp;gt;" style="endArrow=open;endSize=12;dashed=1;html=1;rounded=0;exitX=0;exitY=0.5;exitDx=0;exitDy=0;entryX=1;entryY=0;entryDx=0;entryDy=0;" parent="1" source="wW6kRPYwU79xlvJDrJ0U-29" target="wW6kRPYwU79xlvJDrJ0U-13" edge="1">
          <mxGeometry width="160" relative="1" as="geometry">
            <mxPoint x="430" y="596" as="sourcePoint" />
            <mxPoint x="339" y="628" as="targetPoint" />
          </mxGeometry>
        </mxCell>
        <mxCell id="wW6kRPYwU79xlvJDrJ0U-33" value="&amp;lt;&amp;lt;extends&amp;gt;&amp;gt;" style="endArrow=open;endSize=12;dashed=1;html=1;rounded=0;exitX=0;exitY=0.5;exitDx=0;exitDy=0;entryX=0.927;entryY=0.832;entryDx=0;entryDy=0;entryPerimeter=0;" parent="1" source="wW6kRPYwU79xlvJDrJ0U-24" target="wW6kRPYwU79xlvJDrJ0U-13" edge="1">
          <mxGeometry width="160" relative="1" as="geometry">
            <mxPoint x="440" y="606" as="sourcePoint" />
            <mxPoint x="349" y="638" as="targetPoint" />
          </mxGeometry>
        </mxCell>
        <mxCell id="wW6kRPYwU79xlvJDrJ0U-34" value="&amp;lt;&amp;lt;extends&amp;gt;&amp;gt;" style="endArrow=open;endSize=12;dashed=1;html=1;rounded=0;exitX=0;exitY=0.5;exitDx=0;exitDy=0;entryX=1;entryY=0;entryDx=0;entryDy=0;" parent="1" source="wW6kRPYwU79xlvJDrJ0U-22" target="wW6kRPYwU79xlvJDrJ0U-14" edge="1">
          <mxGeometry width="160" relative="1" as="geometry">
            <mxPoint x="450" y="616" as="sourcePoint" />
            <mxPoint x="359" y="648" as="targetPoint" />
          </mxGeometry>
        </mxCell>
        <mxCell id="wW6kRPYwU79xlvJDrJ0U-35" value="&amp;lt;&amp;lt;extends&amp;gt;&amp;gt;" style="endArrow=open;endSize=12;dashed=1;html=1;rounded=0;exitX=0;exitY=0.5;exitDx=0;exitDy=0;entryX=1;entryY=1;entryDx=0;entryDy=0;" parent="1" source="wW6kRPYwU79xlvJDrJ0U-23" target="wW6kRPYwU79xlvJDrJ0U-14" edge="1">
          <mxGeometry width="160" relative="1" as="geometry">
            <mxPoint x="460" y="626" as="sourcePoint" />
            <mxPoint x="369" y="658" as="targetPoint" />
          </mxGeometry>
        </mxCell>
        <mxCell id="VLP4eFardKdn_eaQcjN3-2" value="Add/Remove alerts from investigation" style="ellipse;whiteSpace=wrap;html=1;" vertex="1" parent="1">
          <mxGeometry x="446" y="510" width="104" height="50" as="geometry" />
        </mxCell>
        <mxCell id="VLP4eFardKdn_eaQcjN3-3" value="&amp;lt;&amp;lt;extends&amp;gt;&amp;gt;" style="endArrow=open;endSize=12;dashed=1;html=1;rounded=0;exitX=0;exitY=0.5;exitDx=0;exitDy=0;entryX=1;entryY=0;entryDx=0;entryDy=0;" edge="1" parent="1" source="VLP4eFardKdn_eaQcjN3-2" target="wW6kRPYwU79xlvJDrJ0U-12">
          <mxGeometry width="160" relative="1" as="geometry">
            <mxPoint x="430" y="565" as="sourcePoint" />
            <mxPoint x="339" y="597" as="targetPoint" />
          </mxGeometry>
        </mxCell>
      </root>
    </mxGraphModel>
  </diagram>
</mxfile>
